<svg width="36" height="42" viewBox="0 0 36 42" fill="none" xmlns="http://www.w3.org/2000/svg">
<path d="M11.1185 30.9922H3.99847C3.01432 30.9922 2.21492 31.7916 2.21492 32.7757V37.2755C2.21492 38.2596 3.01432 39.059 3.99847 39.059H6.67024V39.727H5.43206C4.94176 39.727 4.54384 40.1249 4.54384 40.6152C4.54384 41.1055 4.94176 41.5034 5.43206 41.5034H9.68665C10.1769 41.5034 10.5749 41.1055 10.5749 40.6152C10.5749 40.1249 10.1769 39.727 9.68665 39.727H8.44669V39.059H11.1185C12.1026 39.059 12.902 38.2596 12.902 37.2755V32.7757C12.902 31.7916 12.1026 30.9922 11.1185 30.9922ZM11.1202 37.2808L3.99136 37.2737L3.99847 32.7669L11.1256 32.774L11.1202 37.2808Z" fill="#222222"/>
<path d="M32.4358 30.9922H25.3158C24.3317 30.9922 23.5323 31.7916 23.5323 32.7757V37.2755C23.5323 38.2596 24.3317 39.059 25.3158 39.059H27.9876V39.727H26.7494C26.2591 39.727 25.8612 40.1249 25.8612 40.6152C25.8612 41.1055 26.2591 41.5034 26.7494 41.5034H31.004C31.4943 41.5034 31.8922 41.1055 31.8922 40.6152C31.8922 40.1249 31.4943 39.727 31.004 39.727H29.764V39.059H32.4358C33.4199 39.059 34.2193 38.2596 34.2193 37.2755V32.7757C34.2193 31.7916 33.4199 30.9922 32.4358 30.9922ZM32.4376 37.2808L25.3087 37.2737L25.3158 32.7669L32.4429 32.774L32.4376 37.2808Z" fill="#222222"/>
<path d="M27.9876 29.4375C27.9876 29.9278 28.3855 30.3257 28.8758 30.3257C29.3661 30.3257 29.764 29.9278 29.764 29.4375V27.5864C29.764 27.0961 29.3661 26.6982 28.8758 26.6982H19.1053V25.5879C19.1053 25.0976 18.7074 24.6997 18.2171 24.6997C17.7268 24.6997 17.3289 25.0976 17.3289 25.5879V26.6982H7.55845C7.06815 26.6982 6.67023 27.0961 6.67023 27.5864V29.4375C6.67023 29.9278 7.06815 30.3257 7.55845 30.3257C8.04875 30.3257 8.44667 29.9278 8.44667 29.4375V28.4747H18.2171H27.9876V29.4375Z" fill="#222222"/>
<path d="M27.0245 23.6158H7.31543C5.45725 23.6141 3.66924 22.8907 2.31376 21.5924C0.958282 20.2941 0.136724 18.518 0.0155872 16.624C-0.10555 14.73 0.482795 12.8598 1.66139 11.3925C2.83998 9.92506 4.52066 8.97026 6.36281 8.72153C6.94112 6.54144 8.11933 4.57647 9.75774 3.05959C11.3962 1.5427 13.4261 0.537538 15.6068 0.16327C17.7875 -0.210999 20.0275 0.0613274 22.0613 0.94796C24.0951 1.83459 25.8373 3.29834 27.0814 5.16566C29.462 5.19637 31.7344 6.18587 33.4046 7.91896C35.0747 9.65205 36.0074 11.9886 36 14.4204C35.9925 16.8523 35.0453 19.1828 33.3646 20.9051C31.6838 22.6274 29.4053 23.6023 27.0245 23.6177V23.6158ZM7.31543 11.4214C6.09118 11.4214 4.91707 11.9181 4.05139 12.8024C3.18571 13.6866 2.69938 14.8859 2.69938 16.1364C2.69938 17.387 3.18571 18.5862 4.05139 19.4705C4.91707 20.3547 6.09118 20.8515 7.31543 20.8515H27.0245C28.6892 20.8312 30.2789 20.1415 31.4491 18.9319C32.6192 17.7223 33.2754 16.0903 33.2754 14.3898C33.2754 12.6893 32.6192 11.0574 31.4491 9.84778C30.2789 8.63819 28.6892 7.94847 27.0245 7.92816C26.8531 7.92816 26.6727 7.93646 26.4715 7.95488C26.2158 7.97743 25.959 7.9252 25.7313 7.8043C25.5035 7.6834 25.3141 7.49881 25.1851 7.27209C24.2728 5.66444 22.8978 4.3828 21.2472 3.60145C19.5966 2.8201 17.7505 2.57694 15.9599 2.90504C14.1692 3.23313 12.5209 4.11657 11.2391 5.43522C9.95734 6.75387 9.10422 8.44375 8.79578 10.2751C8.74103 10.6025 8.57268 10.8988 8.32155 11.1098C8.07041 11.3209 7.75328 11.4324 7.42819 11.4241H7.36505L7.31543 11.4214Z" fill="#222222"/>
<path d="M31.0507 21.3428H29.9493V22.4441H31.0507V21.3428Z" fill="#222222"/>
<path d="M28.1597 19.5586C27.8525 19.8654 27.6088 20.2298 27.4425 20.6309C27.2762 21.032 27.1906 21.462 27.1906 21.8962C27.1906 22.3304 27.2762 22.7603 27.4425 23.1614C27.6088 23.5625 27.8525 23.9269 28.1597 24.2338L28.9416 23.4573C28.736 23.2527 28.5728 23.0094 28.4615 22.7415C28.3502 22.4736 28.2928 22.1863 28.2928 21.8962C28.2928 21.6061 28.3502 21.3188 28.4615 21.0509C28.5728 20.783 28.736 20.5397 28.9416 20.335L28.1597 19.5586Z" fill="#222222"/>
<path d="M32.8403 24.2279C33.1475 23.9211 33.3912 23.5567 33.5575 23.1556C33.7238 22.7545 33.8094 22.3245 33.8094 21.8903C33.8094 21.4561 33.7238 21.0262 33.5575 20.6251C33.3912 20.224 33.1475 19.8596 32.8403 19.5527L32.0584 20.3292C32.264 20.5338 32.4272 20.7771 32.5385 21.045C32.6498 21.3129 32.7072 21.6002 32.7072 21.8903C32.7072 22.1804 32.6498 22.4677 32.5385 22.7356C32.4272 23.0035 32.264 23.2468 32.0584 23.4515L32.8403 24.2279Z" fill="#222222"/>
<path d="M27.3887 25.0045C26.5649 24.1786 26.1022 23.0597 26.1022 21.8932C26.1022 20.7267 26.5649 19.6078 27.3887 18.7819L26.6123 18C25.5799 19.0327 25 20.433 25 21.8932C25 23.3534 25.5799 24.7538 26.6123 25.7864L27.3887 25.0045Z" fill="#222222"/>
<path d="M33.6113 18.7819C34.4351 19.6078 34.8978 20.7267 34.8978 21.8932C34.8978 23.0597 34.4351 24.1786 33.6113 25.0045L34.3877 25.7864C35.4201 24.7538 36 23.3534 36 21.8932C36 20.433 35.4201 19.0327 34.3877 18L33.6113 18.7819Z" fill="#222222"/>
</svg>
